<svg width="395" height="150" viewBox="0 0 395 150" fill="none" xmlns="http://www.w3.org/2000/svg">
<g clip-path="url(#clip0_3_2)">
<path d="M256.074 74.81L262.424 85.9L263.854 88.4H272.574L270.444 80.99H268.094L267.804 80.48L264.554 74.81L267.804 69.15L262.424 63.72L256.074 74.81Z" fill="#A67C52"/>
<path d="M240.504 74.81L254.134 98.64L255.904 101.73H276.394L274.274 94.32H260.154L257.924 90.44L248.984 74.81L257.924 59.19L253.224 54.44L254.134 50.99L240.504 74.81Z" fill="#A67C52"/>
<path d="M284.264 109.73L278.204 108.05L276.524 101.73H268.924L272.204 114.1L284.264 117.42V109.73Z" fill="#A67C52"/>
<path d="M284.264 123.83L267.194 119.15L262.564 101.73H255.904L254.134 98.64L261.194 125.21L284.264 131.51V123.83Z" fill="#A67C52"/>
<path d="M276.524 47.89L278.204 41.58L284.264 40.14V32.52L272.204 35.53L268.924 47.89L268.184 50.68L274.914 57.48L278.824 50.94L276.374 48.47L276.524 47.89Z" fill="#A67C52"/>
<path d="M261.414 52.23L262.564 47.89L267.194 30.47L284.264 26.12V18.46L261.194 24.42L254.144 50.99L253.224 54.44L257.924 59.19L262.424 63.72L267.804 69.15L267.884 69.23L271.794 62.7L270.334 61.22L261.414 52.23Z" fill="#A67C52"/>
<path d="M331.834 8.36L323.474 13.11L339.134 22.11V57.44L287.294 87.38V132.25L301.914 140.69L332.524 123.29V96.29L317.344 87.53L302.174 96.33V123.33L314.704 130.57L307.704 134.57L295.534 127.57V92.14L347.374 62.21V17.35L331.794 8.35L331.834 8.36ZM310.474 118.47V101.05L317.374 97.05L324.274 101.05V118.47L317.374 122.47L310.474 118.47Z" fill="#218FA7"/>
<path d="M325.274 4.57L317.354 0L309.034 4.8L316.904 9.33L325.274 4.57Z" fill="#218FA7"/>
<path d="M310.304 13.63L302.004 8.86L293.534 13.75L301.874 18.49L310.304 13.63Z" fill="#218FA7"/>
<path d="M332.524 53.27V26.27L317.344 17.52L302.174 26.3V53.3L314.754 60.56L307.824 64.56L295.564 57.48V22.48L287.294 17.78V62.28L302.074 70.81L332.524 53.33V53.27ZM310.444 48.27V30.83L317.344 26.83L324.244 30.83V48.25L317.344 52.25L310.444 48.27Z" fill="#218FA7"/>
<path d="M347.094 69.86L347.404 75.1L342.214 77.52L336.254 80.94L347.404 87.38V132.25L317.344 149.63L310.784 145.85L308.934 144.84L339.134 127.47V92.15L326.614 84.92L323.974 83.4L347.094 69.86Z" fill="#218FA7"/>
<path d="M295.414 74.43L287.494 69.86L279.174 74.66L287.044 79.19L295.414 74.43Z" fill="#218FA7"/>
<path d="M355.014 74.43L347.094 69.86L338.774 74.73L346.644 79.19L355.014 74.43Z" fill="#218FA7"/>
<path d="M378.634 74.81L372.284 85.9L370.854 88.4H362.134L364.264 80.99H366.614L366.904 80.48L370.144 74.81L366.904 69.15L372.284 63.72L378.634 74.81Z" fill="#A67C52"/>
<path d="M394.204 74.81L380.564 98.64L378.794 101.73H358.314L360.434 94.32H374.554L376.774 90.44L385.724 74.81L376.774 59.19L381.484 54.44L380.564 50.99L394.204 74.81Z" fill="#A67C52"/>
<path d="M358.174 101.73L356.504 108.05L351.264 109.5V117.19L362.494 114.1L365.784 101.73H358.174Z" fill="#A67C52"/>
<path d="M378.794 101.73H372.144L367.514 119.15L351.264 123.6V131.28L373.504 125.21L380.564 98.64L378.794 101.73Z" fill="#A67C52"/>
<path d="M365.784 47.89L362.494 35.53L351.264 32.72V40.34L356.504 41.58L358.174 47.89L358.324 48.47L355.884 50.94L359.784 57.48L366.524 50.68L365.784 47.89Z" fill="#A67C52"/>
<path d="M380.564 50.99L373.504 24.42L351.264 18.67V26.33L367.514 30.47L372.144 47.89L373.284 52.22L364.374 61.22L362.914 62.7L366.814 69.23L366.904 69.15L372.284 63.72L376.774 59.19L381.484 54.44L380.564 50.99Z" fill="#A67C52"/>
<path d="M0.563619 130V147.5L2.81362 148.9V142.11L7.17362 144.63L11.5336 142.11V148.9L13.7736 147.5V130L7.16362 126.2L0.553619 130H0.563619ZM11.5636 135.38V139.5L7.17362 142L2.81362 139.48V131.27L7.17362 128.75L11.5336 131.27V135.36L11.5636 135.38Z" fill="#A67C52"/>
<path d="M32.4736 130V147.5L34.7136 148.9V142.11L39.0836 144.63L43.4436 142.11V148.9L45.6936 147.5V130L39.0836 126.18L32.4736 130ZM43.4736 135.38V139.5L39.0536 142L34.6836 139.48V131.27L39.0536 128.75L43.4136 131.27V135.36L43.4736 135.38Z" fill="#A67C52"/>
<path d="M19.2636 135.4V131.31L23.6236 128.79L27.2536 130.88L27.5536 130.61C28.0636 130.18 28.6036 129.77 29.1336 129.37L23.6236 126.19L17.0136 130V147.48L19.2536 148.88V142.1L23.6136 144.62L27.9736 142.1V139.51L23.6136 142L19.2536 139.48V135.36L19.2636 135.4Z" fill="#A67C52"/>
<path d="M48.9036 130V144.84L55.4736 148.68L58.7236 146.8L62.0136 148.68V146.09L61.0136 145.5L62.1136 144.86V130L55.4736 126.2L48.9036 130ZM59.9036 135.38V143.54L58.7936 144.18L52.5836 140.64V143.23L56.5836 145.48L55.5836 146.05L51.2136 143.53V131.3L55.4736 128.78L59.8336 131.3V135.39L59.9036 135.38Z" fill="#A67C52"/>
<path d="M71.8536 130.13V147.61L74.1036 148.67V142.22L78.4736 144.74L82.8336 142.22V148.67L85.0736 147.61V130.13L78.4736 126.32L71.8636 130.13H71.8536ZM82.8536 135.52V139.64L78.4736 142.16L74.1136 139.64V131.43L78.4736 128.91L82.8336 131.43V135.52H82.8536Z" fill="#A67C52"/>
<path d="M132.204 130.13V147.61L134.454 148.67V142.22L138.824 144.74L143.184 142.22V148.67L145.424 147.32V130.13L138.814 126.32L132.204 130.13ZM143.204 135.52V139.64L138.844 142.16L134.474 139.64V131.43L138.844 128.91L143.204 131.43V135.52Z" fill="#A67C52"/>
<path d="M148.664 130V147.48L150.914 148.85V142.09L155.284 144.61L159.644 142.09V148.85L161.894 147.48V130L155.284 126.18L148.674 130H148.664ZM159.664 135.38V139.5L155.274 142L150.904 139.48V131.27L155.274 128.75L159.634 131.27V135.36L159.664 135.38Z" fill="#A67C52"/>
<path d="M171.744 144.44L179.054 148.64V146.05L173.964 143.12L176.104 141.88L178.344 140.58V129.78L171.734 126L165.124 129.81V147.29L167.374 148.66V141.9L171.744 144.42V144.44ZM167.374 137.8V131.12L171.744 128.6L176.104 131.12V139.33L171.744 141.85L167.374 139.33V137.8Z" fill="#A67C52"/>
<path d="M116.864 129.48L111.384 126.31L104.774 130.13V136.81V140.93V147.61L107.014 148.67V142.23V139.63V138.11V135.52V131.43L111.384 128.91L115.744 131.43V135.52V136.81V138.11V139.63V140.93V142.23V146.32L116.864 148.67L117.994 146.32V142.23V140.93V139.63V138.11V136.81V135.52V131.43L122.354 128.91L126.724 131.43V135.41V135.52V138V139.53V142.12L126.714 148.68L128.964 147.51V140.82V136.81V136.71V130.13L122.354 126.31L116.864 129.48Z" fill="#A67C52"/>
<path d="M213.764 129.91V147.39L216.014 148.67V142L220.374 144.52L224.744 142V148.67L226.994 147.39V129.91L220.384 126.09L213.774 129.91H213.764ZM224.764 135.3V139.42L220.394 141.94L216.034 139.42V131.21L220.394 128.69L224.764 131.21V135.3Z" fill="#A67C52"/>
<path d="M209.734 139.42L205.374 141.94L201.004 139.42V131.21L205.374 128.69L209.004 130.78L209.304 130.52C209.814 130.09 210.304 129.68 210.884 129.28L205.374 126.09L198.764 129.91V147.39L201.014 148.67V142L205.384 144.52L209.744 142V139.41L209.734 139.42Z" fill="#A67C52"/>
<path d="M99.2836 143.56L94.9236 146.08L90.5536 143.56V142.23V141.8V139.63V128.91V126.31L88.3136 127.61V140.51V140.93V144.86L94.9236 148.67L101.534 144.86V140.51L99.2836 141.8V143.56Z" fill="#A67C52"/>
<path d="M193.264 143.5L188.904 146.02L184.544 143.5V141.92V141.74V139.69H194.034V137.44H189.934H187.514H184.544V135.21V131.12L188.904 128.6L193.264 131.12L195.514 129.83L188.904 126.01L182.294 129.83V136.51V140.45V140.63V144.8L188.904 148.61L195.514 144.8L193.264 143.5Z" fill="#A67C52"/>
<path fill-rule="evenodd" clip-rule="evenodd" d="M81.4736 71.31C81.347 69.615 81.7128 67.9194 82.5271 66.4274C83.3414 64.9354 84.5695 63.7105 86.0636 62.9C93.6636 59.27 101.464 58.33 109.514 61.23C110.987 61.8093 112.406 62.5187 113.754 63.35C114.954 64.04 115.104 64.99 114.654 66.41C114.303 67.796 113.584 69.0609 112.571 70.07C111.558 71.0791 110.291 71.7945 108.904 72.14C107.044 72.67 105.404 73.97 103.314 75.14C106.314 77.21 108.404 79.38 112.114 78.92C117.114 78.29 121.394 75.92 125.714 73.67C125.903 73.492 126.048 73.2711 126.135 73.0257C126.222 72.7804 126.249 72.5179 126.214 72.26C122.684 57.47 121.084 42.38 119.214 27.34C118.614 22.63 118.004 17.9 117.834 13.16C117.774 11.48 119.034 9.76 119.764 7.88C120.204 8.25 120.414 8.33 120.464 8.48C122.334 13.1 124.244 17.71 126.014 22.36C126.235 23.3436 126.319 24.3532 126.264 25.36L125.744 25.54L123.094 22.45L122.714 22.59C122.637 23.076 122.611 23.5686 122.634 24.06C124.727 38.06 126.83 52.06 128.944 66.06C129.224 67.9 129.844 69.69 130.194 71.53C130.394 72.53 130.854 72.73 131.864 72.72C133.719 72.5904 135.583 72.7627 137.384 73.23C142.974 75.15 144.084 79.97 141.684 85.78C141.359 86.476 140.942 87.1251 140.444 87.71C138.514 90.17 135.384 90.63 133.144 88.45C131.743 86.8934 130.519 85.1863 129.494 83.36C129.111 82.5368 128.778 81.6921 128.494 80.83C128.204 80.23 127.584 79.18 127.404 79.24C126.46 79.491 125.598 79.9839 124.904 80.67C124.445 81.3986 124.196 82.2393 124.184 83.1C123.424 89.85 125.084 95.66 130.784 99.9C133.154 101.494 135.928 102.385 138.784 102.47C147.984 103.32 156.264 100.6 163.854 95.65C167.264 93.43 170.384 90.77 173.614 88.27C174.984 87.21 176.204 85.99 175.434 84.01C174.614 81.88 173.144 80.37 170.784 80.28C169.108 80.3066 167.437 80.457 165.784 80.73C164.324 80.9675 162.826 80.7268 161.514 80.0438C160.202 79.3608 159.146 78.2721 158.504 76.94C157.798 75.0776 157.78 73.0243 158.454 71.15C159.1 68.9163 160.386 66.9207 162.154 65.41C162.837 64.789 163.702 64.4049 164.621 64.3148C165.54 64.2248 166.463 64.4335 167.254 64.91C170.063 66.4157 172.405 68.6641 174.024 71.41C176.134 75.21 178.364 78.95 177.924 83.53C177.554 87.46 176.554 91.08 173.354 93.86C166.934 99.46 160.204 104.47 151.864 106.86C146.63 108.541 141.063 108.908 135.654 107.93C128.324 106.46 124.024 101.8 122.064 94.82C121.052 91.3783 121.126 87.7086 122.274 84.31C122.624 83.31 122.794 82.2 123.124 80.84L120.744 81.68C118.314 82.56 115.934 83.63 113.444 84.29C111.73 84.7737 109.925 84.8344 108.184 84.4669C106.442 84.0994 104.815 83.3146 103.444 82.18C102.394 81.35 101.384 80.45 100.394 79.54C98.8536 78.15 98.3936 78.1 96.6636 79.3C94.7736 80.62 92.9336 82.01 91.0236 83.3C87.4036 85.74 83.5436 87.88 80.1536 90.6C76.5012 93.6354 73.0287 96.8809 69.7536 100.32C67.3055 102.956 64.4736 105.208 61.3536 107C56.2736 109.77 49.3536 107.42 47.3536 102C46.4478 99.7121 46.0416 97.257 46.1623 94.7993C46.2831 92.3416 46.9279 89.9381 48.0536 87.75C48.4476 87.1 48.6294 86.3435 48.5738 85.5855C48.5183 84.8275 48.2281 84.1056 47.7436 83.52C46.3836 81.61 45.2536 79.52 43.9936 77.52C42.9936 75.98 42.2636 75.6 40.6336 76.46C39.0682 77.2691 37.6487 78.3337 36.4336 79.61C33.4336 82.85 31.5236 86.8 29.6836 90.78C28.9784 92.5133 28.1703 94.203 27.2636 95.84C26.3956 97.3347 25.299 98.6843 24.0136 99.84C22.741 101.009 21.0809 101.666 19.3528 101.685C17.6248 101.703 15.951 101.082 14.6536 99.94C12.349 98.0555 10.5427 95.6336 9.39355 92.8872C8.24444 90.1409 7.78775 87.1543 8.06364 84.19C8.26381 83.0374 8.72565 81.9461 9.41364 81C9.50364 82.15 9.62364 83.29 9.67364 84.44C9.68901 86.95 10.4159 89.4041 11.77 91.5175C13.1241 93.631 15.0498 95.317 17.3236 96.38C18.4009 96.8965 19.6311 96.9964 20.7775 96.6604C21.924 96.3244 22.9056 95.5763 23.5336 94.56C24.9536 92.47 26.0836 90.17 27.3536 87.97C29.8736 83.62 32.2236 79.16 34.9936 74.97C36.3124 73.2066 37.9761 71.73 39.8836 70.63C42.2336 69.14 43.8236 69.63 45.4536 71.86C46.7555 73.6433 47.9381 75.5107 48.9936 77.45C49.6439 78.8858 50.7444 80.0705 52.1285 80.8248C53.5125 81.579 55.1046 81.8617 56.6636 81.63C61.4004 81.3049 65.9298 79.5628 69.6636 76.63C71.3636 75.24 71.3136 74.01 69.5636 72.69C68.0336 71.53 66.2436 71.52 64.4636 71.58C63.1236 71.58 61.7836 71.81 60.4636 71.98C55.3636 72.65 52.4636 68.14 53.3536 63.98C53.9704 61.11 55.4007 58.4785 57.4736 56.4C57.9411 55.8211 58.5809 55.4062 59.3002 55.2155C60.0195 55.0249 60.7808 55.0685 61.4736 55.34C62.9356 55.8711 64.2904 56.6603 65.4736 57.67C68.4671 60.5509 70.848 64.0067 72.4736 67.83C73.2555 69.6179 73.6707 71.5445 73.6948 73.4958C73.7188 75.4471 73.3512 77.3833 72.6136 79.19C72.2246 80.1643 71.5698 81.0098 70.7236 81.63C67.0847 84.4332 62.8651 86.3875 58.3736 87.35C56.1255 87.9074 53.7625 87.7856 51.5836 87C50.5836 86.58 50.0136 86.87 49.6936 87.77C49.0345 89.2501 48.5448 90.7999 48.2336 92.39C47.9236 95.24 47.1436 98.16 48.9136 100.94C49.6318 102.198 50.7624 103.17 52.1143 103.691C53.4663 104.212 54.9567 104.251 56.3336 103.8C59.5593 102.803 62.4846 101.015 64.8436 98.6C70.4736 92.72 76.1936 86.87 83.1336 82.42C86.3636 80.35 89.6236 78.31 92.8636 76.24C95.2036 74.75 95.2436 74.7 93.2836 72.67C92.1461 71.5022 90.9335 70.4099 89.6536 69.4C88.9534 68.7997 88.0671 68.4598 87.145 68.4379C86.2229 68.416 85.3216 68.7135 84.5936 69.28C83.5936 69.93 82.5936 70.52 81.4036 71.28L81.4736 71.31ZM107.134 67.38C107.029 67.2089 106.909 67.0481 106.774 66.9C106.625 66.7805 106.46 66.6828 106.284 66.61C102.925 65.4611 99.3294 65.1824 95.8336 65.8C94.8336 65.93 94.7036 66.56 95.4336 67.31C96.6036 68.52 97.7936 69.7 98.9036 70.96C99.0195 71.1246 99.1685 71.263 99.3411 71.3665C99.5138 71.4699 99.7062 71.536 99.9059 71.5605C100.106 71.585 100.308 71.5673 100.501 71.5087C100.693 71.4501 100.871 71.3517 101.024 71.22C102.654 70.22 104.334 69.32 106.024 68.35C106.437 68.0489 106.825 67.7144 107.184 67.35L107.134 67.38ZM60.4336 66.27V66.43C61.7236 66.15 63.0336 65.92 64.3036 65.57C64.4612 65.5533 64.6113 65.4943 64.7381 65.3994C64.8649 65.3044 64.9637 65.177 65.0241 65.0306C65.0846 64.8841 65.1043 64.7241 65.0814 64.5673C65.0584 64.4106 64.9935 64.2629 64.8936 64.14C64.0136 62.46 60.8136 60.95 58.9936 61.39C57.7636 61.69 56.1536 63.5 56.4236 64.48C56.8036 65.84 58.0036 66.11 59.2536 66.19L60.3936 66.27H60.4336ZM131.844 78.33C132.604 79.61 133.244 80.88 134.064 82.01C134.532 82.6428 135.145 83.1544 135.851 83.5023C136.557 83.8502 137.336 84.0243 138.124 84.01C139.904 84.01 140.354 83.36 139.644 81.7C138.514 79.08 135.294 77.6 131.844 78.28V78.33ZM170.164 73.71C168.964 72.71 168.084 71.8 167.094 71.08C166.309 70.4794 165.322 70.2055 164.34 70.3154C163.358 70.4254 162.456 70.9107 161.824 71.67C160.824 72.94 161.034 73.9 162.554 74.42C165.054 75.28 167.484 74.88 170.164 73.71Z" fill="#218FA7"/>
<path fill-rule="evenodd" clip-rule="evenodd" d="M177.124 9.3C177.404 9.86363 177.648 10.4448 177.854 11.04C179.817 18.3657 181.172 25.8412 181.904 33.39C183.484 47.65 185.114 61.91 186.794 76.17C187.13 79.6202 188.168 82.9652 189.844 86C191.994 89.78 195.114 91.6 199.464 91.17C202.928 90.9895 206.299 89.9813 209.294 88.23C209.859 87.9268 210.31 87.447 210.577 86.8639C210.844 86.2807 210.913 85.6261 210.774 85C210.759 84.3553 210.522 83.7356 210.103 83.2455C209.683 82.7554 209.108 82.425 208.474 82.31C206.815 82.1073 205.143 82.0404 203.474 82.11C202.134 82.11 200.794 82.34 199.474 82.29C198.668 82.3017 197.881 82.0417 197.241 81.5519C196.6 81.0621 196.143 80.371 195.944 79.59C194.434 74.59 195.734 68.8 202.094 66.78C203.794 66.24 206.624 67.33 207.974 69.07C210.745 72.6713 212.629 76.8748 213.474 81.34C214.274 85.44 212.474 89.14 210.384 92.6C210.103 92.9292 209.764 93.2038 209.384 93.41C205.453 96.1974 200.649 97.4722 195.854 97C190.854 96.61 188.134 93.28 186.234 89.13C184.414 85.13 183.844 80.86 183.334 76.56C181.164 58.21 179.494 39.79 176.334 21.56C175.944 19.29 175.394 17.05 174.894 14.81C174.394 12.57 175.754 11.06 176.554 9.32H177.074L177.124 9.3ZM206.264 75.52C206.135 74.7893 205.773 74.1198 205.232 73.6116C204.691 73.1034 204.001 72.7836 203.264 72.7C202.506 72.4721 201.698 72.474 200.941 72.7054C200.185 72.9368 199.514 73.3873 199.014 74C198.104 75.09 198.514 76.37 199.924 76.52C202.088 76.74 204.272 76.3955 206.264 75.52Z" fill="#218FA7"/>
<path fill-rule="evenodd" clip-rule="evenodd" d="M213.614 9.43C214.154 9.67 215.004 9.77 215.174 10.17C216.764 13.81 218.264 17.5 219.734 21.17C220.143 22.249 220.477 23.3549 220.734 24.48C220.788 25.0721 220.788 25.6679 220.734 26.26L218.204 23.15L217.664 23.46C217.545 23.9207 217.485 24.3944 217.484 24.87C218.484 34.87 219.604 44.87 220.424 54.87C221.337 65.97 222.084 77.08 222.664 88.2C222.874 92.4 222.554 96.67 220.574 100.57C220.364 100.98 220.114 101.36 219.874 101.76L219.504 101.7C219.504 101.13 219.424 100.55 219.424 99.98C219.424 94.22 219.744 88.43 219.254 82.72C217.744 65.41 215.954 48.12 214.154 30.84C213.604 25.6 212.604 20.41 211.904 15.18C211.871 14.2905 212.028 13.4043 212.364 12.58C212.714 11.51 213.234 10.49 213.674 9.45L213.614 9.43Z" fill="#218FA7"/>
<path fill-rule="evenodd" clip-rule="evenodd" d="M140.094 8.74C140.284 8.81777 140.468 8.91143 140.644 9.02C142.804 13.61 144.974 18.2 147.104 22.8C147.214 23.03 147.034 23.39 146.994 23.7C146.647 23.6766 146.308 23.5884 145.994 23.44C145.284 22.93 144.624 22.33 143.994 21.77L143.574 22.01C143.694 23.26 143.774 24.51 143.944 25.75C145.804 39.2 147.864 52.63 149.464 66.11C150.304 73.11 151.114 80.25 150.184 87.36C149.793 89.2027 149.248 91.0092 148.554 92.76L148.054 92.68C147.948 92.4088 147.871 92.1272 147.824 91.84C147.504 87.01 147.454 82.15 146.824 77.35C144.564 59.01 142.154 40.7 139.744 22.35C139.42 19.8742 138.949 17.4199 138.334 15C137.684 12.45 139.454 10.85 140.104 8.7L140.094 8.74Z" fill="#218FA7"/>
<path fill-rule="evenodd" clip-rule="evenodd" d="M21.2736 68.46C21.4542 69.3099 21.3797 70.1942 21.0595 71.0019C20.7392 71.8096 20.1875 72.5047 19.4736 73C19.2996 73.1504 19.0964 73.2635 18.8769 73.3322C18.6573 73.4009 18.426 73.4237 18.1972 73.3994C17.9685 73.375 17.7471 73.3039 17.547 73.1905C17.3468 73.077 17.1721 72.9237 17.0336 72.74C16.3424 72.0709 15.7965 71.2664 15.43 70.3769C15.0635 69.4874 14.8843 68.5319 14.9036 67.57C14.9936 66.04 14.9036 64.48 15.1436 62.97C15.3446 61.7455 15.293 60.4929 14.9921 59.2891C14.6911 58.0854 14.1472 56.9558 13.3936 55.97C12.3936 54.53 11.2436 53.12 9.93363 51.41C9.01363 58.1 5.66363 62.67 0.933633 66.41L0.473633 66C0.913633 65.46 1.35363 64.91 1.81363 64.38C4.72363 61 7.55363 57.56 8.47363 53C8.55988 52.778 8.59963 52.5407 8.59044 52.3027C8.58124 52.0647 8.52329 51.8312 8.42017 51.6165C8.31705 51.4018 8.17096 51.2106 7.99095 51.0547C7.81093 50.8987 7.60082 50.7814 7.37363 50.71C5.72363 49.99 5.28363 48.71 5.78363 46.88C6.05363 45.88 6.48363 45.61 7.42363 46.2C10.4199 48.1378 12.9092 50.7642 14.6836 53.86C14.9655 54.3971 15.3782 54.8545 15.8836 55.19C16.0248 54.6574 16.1317 54.1163 16.2036 53.57C16.3636 51.13 16.4436 48.68 16.6436 46.24C16.7205 45.384 16.9367 44.5463 17.2836 43.76C18.2836 41.57 19.6936 41.26 21.4136 42.91C22.1909 43.6225 22.8285 44.4737 23.2936 45.42C23.5436 45.98 23.1936 46.8 23.1036 47.51C22.5781 47.3358 22.0747 47.1009 21.6036 46.81C20.8936 46.25 20.3436 45.48 19.6036 44.97C18.5036 44.22 17.6036 44.66 17.5136 45.97C16.9236 51.97 16.3636 57.97 15.7936 63.97C15.7109 65.0238 15.8458 66.0834 16.1898 67.0828C16.5339 68.0823 17.0798 69.0004 17.7936 69.78C18.9336 71.15 19.7936 71.06 20.6236 69.48C20.8236 69.12 21.0236 68.76 21.2336 68.41L21.2736 68.46Z" fill="#218FA7"/>
<path fill-rule="evenodd" clip-rule="evenodd" d="M77.7036 46.08L85.1136 39.88C85.0436 39.7 84.9836 39.51 84.9136 39.33C80.8036 38.63 76.6836 38 72.5936 39.75C71.8436 37 74.7036 33.1 77.8036 33C81.5925 32.7876 85.3904 33.2032 89.0436 34.23C90.8736 34.8 91.0436 35.34 90.2036 37.07C89.0578 39.4653 87.2454 41.4791 84.9836 42.87C83.5036 43.75 82.0636 44.72 80.5536 45.54C79.708 45.9418 78.8319 46.2761 77.9336 46.54C77.8636 46.39 77.7836 46.25 77.7136 46.1L77.7036 46.08Z" fill="#218FA7"/>
<path fill-rule="evenodd" clip-rule="evenodd" d="M40.8236 48.23C42.9236 49.91 44.8236 51.4 46.7036 52.98C46.8717 53.169 46.9907 53.3965 47.05 53.6425C47.1093 53.8884 47.1071 54.1451 47.0436 54.39C46.4136 55.81 45.6336 57.16 44.8736 58.6L39.0436 54.21C38.4136 55.51 37.9036 56.52 37.4136 57.55C36.9236 58.58 36.4136 58.78 35.5136 58.12C34.3036 57.26 33.0336 56.48 31.7836 55.68C31.5432 55.5472 31.3328 55.3663 31.1654 55.1485C30.998 54.9308 30.8772 54.681 30.8106 54.4145C30.744 54.1481 30.7329 53.8708 30.7782 53.5999C30.8235 53.329 30.924 53.0703 31.0736 52.84C32.6836 49.4 32.6636 49.4 35.9036 51.38C37.717 52.4867 39.027 52.08 39.8336 50.16C40.0736 49.6 40.3936 49.07 40.8336 48.24L40.8236 48.23Z" fill="#218FA7"/>
<path fill-rule="evenodd" clip-rule="evenodd" d="M27.6636 37.15C29.4136 34.99 31.1736 32.88 32.8636 30.7C34.0336 29.18 35.1136 27.59 36.2036 26.01C36.4731 25.6664 36.6085 25.2366 36.5846 24.8005C36.5607 24.3645 36.3791 23.9521 36.0736 23.64C34.9536 22.26 33.9336 20.81 32.7836 19.45C32.417 18.8975 31.9274 18.4375 31.3531 18.1061C30.7787 17.7747 30.1354 17.5809 29.4736 17.54C28.9895 17.5369 28.5127 17.422 28.0804 17.2041C27.6481 16.9862 27.272 16.6714 26.9815 16.2841C26.6911 15.8968 26.4941 15.4476 26.406 14.9716C26.3179 14.4955 26.341 14.0056 26.4736 13.54C26.7536 12.61 27.2836 12.24 28.1936 12.69C29.1734 13.0684 30.093 13.5871 30.9236 14.23C32.7136 15.95 34.3536 17.83 36.0436 19.65C36.3536 19.98 36.6136 20.35 36.8936 20.7L37.2836 20.59C37.2836 19.97 37.2836 19.34 37.2836 18.72C37.2836 16.38 37.2836 14.03 37.4636 11.72C37.5632 11.0062 37.8193 10.3233 38.2136 9.72C38.3333 9.46707 38.5093 9.24494 38.7282 9.07067C38.9471 8.89641 39.203 8.77466 39.4763 8.71478C39.7496 8.65491 40.033 8.6585 40.3047 8.72528C40.5764 8.79206 40.8292 8.92025 41.0436 9.1C42.9936 10.36 43.7636 11.9 43.1636 13.33C43.0936 13.5 42.9236 13.62 42.6936 13.9C41.9036 13.27 41.1536 12.63 40.3536 12.06C39.2036 11.24 38.4836 11.54 38.2536 12.93C38.1885 13.501 38.1584 14.0754 38.1636 14.65C38.0036 18.04 37.8536 21.43 37.6836 24.82C37.6697 25.1079 37.5983 25.3901 37.4736 25.65C35.2836 30.29 32.8836 34.76 27.9836 37.17C27.9136 37.17 27.8136 37.17 27.6736 37.17L27.6636 37.15Z" fill="#218FA7"/>
<path fill-rule="evenodd" clip-rule="evenodd" d="M157.474 48.43L163.604 52C164.204 50.75 164.784 49.58 165.334 48.38C165.724 47.52 166.224 47.38 166.994 47.94C168.734 49.29 170.494 50.62 172.394 52.07L168.994 56.79C167.694 55.79 166.394 54.79 165.174 53.79C164.284 53.03 163.724 53.12 163.174 54.18C162.762 55.0988 162.252 55.9705 161.654 56.78C161.473 56.9452 161.253 57.0614 161.015 57.1174C160.777 57.1734 160.529 57.1674 160.294 57.1C158.871 56.307 157.495 55.4322 156.174 54.48C155.854 54.25 155.494 53.62 155.594 53.32C156.134 51.72 156.784 50.16 157.474 48.43Z" fill="#218FA7"/>
<path fill-rule="evenodd" clip-rule="evenodd" d="M150.474 34.41C154.094 29.6 158.774 25.6 161.904 20.08C161.004 19.91 160.274 19.78 159.554 19.63C157.794 19.27 157.214 18.51 157.264 16.73C157.34 15.7691 157.623 14.836 158.092 13.9939C158.562 13.1519 159.207 12.4207 159.984 11.85C160.165 11.685 160.382 11.5641 160.618 11.4968C160.854 11.4296 161.102 11.4178 161.343 11.4623C161.584 11.5068 161.811 11.6065 162.008 11.7536C162.204 11.9006 162.363 12.0911 162.474 12.31C163.099 13.2579 163.502 14.3346 163.654 15.46C163.834 17.01 164.404 17.95 165.974 18.28C166.736 18.4005 167.457 18.7061 168.074 19.17C168.656 19.6875 169.032 20.3976 169.134 21.17C169.224 22.29 168.594 22.52 167.574 21.98C166.554 21.44 165.674 21.08 164.724 20.64C164.512 20.4997 164.27 20.4117 164.018 20.3834C163.766 20.3551 163.51 20.3872 163.273 20.4771C163.035 20.5669 162.823 20.712 162.652 20.9003C162.482 21.0886 162.359 21.3148 162.294 21.56C160.204 26.06 156.714 29.44 153.294 32.87C152.513 33.5831 151.691 34.2509 150.834 34.87L150.474 34.49V34.41ZM161.474 17.41C162.424 17.41 162.864 17.01 162.474 16.13C162.314 15.6286 162.033 15.1749 161.654 14.81C161.174 14.46 160.354 14.05 159.964 14.24C159.328 14.6439 158.867 15.2722 158.674 16C158.604 16.21 159.524 16.85 160.074 17.14C160.532 17.323 161.013 17.444 161.504 17.5L161.474 17.41Z" fill="#218FA7"/>
<path fill-rule="evenodd" clip-rule="evenodd" d="M91.2036 21.33C91.3536 19.92 91.4236 18.5 91.6636 17.11C91.9012 15.272 92.2994 13.4584 92.8536 11.69C93.5136 9.88 94.6136 9.69 96.2636 10.75C96.706 11.0456 97.121 11.3803 97.5036 11.75C98.9436 13.08 98.9836 13.75 97.5936 15.59C96.9036 15 96.2036 14.49 95.4736 14C93.9836 12.91 93.2736 13.23 93.0936 15.1C93.0665 16.489 92.9529 17.8751 92.7536 19.25C92.3336 21.15 91.6636 22.99 91.0736 24.85C90.9141 25.2426 90.7338 25.6265 90.5336 26C89.9136 25.05 89.6336 24.57 89.3036 24.13C88.3036 22.82 87.4336 21.47 86.3736 20.24C85.9224 19.7651 85.3228 19.4582 84.6736 19.37C81.6736 19.03 80.5636 17.02 81.9936 14.45C82.1236 14.22 82.9336 14.11 83.2636 14.27C85.8885 15.5953 88.1118 17.5977 89.7036 20.07C90.0136 20.53 90.3336 20.98 90.7036 21.43L91.2636 21.34L91.2036 21.33Z" fill="#218FA7"/>
<path fill-rule="evenodd" clip-rule="evenodd" d="M213.634 9.44C213.534 9.31 213.414 9.06 213.344 9.07C211.594 9.33 209.834 9.58 208.114 9.96C207.854 10.02 207.684 10.7 207.554 11.11C207.274 12.04 207.044 12.99 206.714 14.26C205.544 12.26 204.534 10.68 203.794 9.02C203.704 8.66254 203.69 8.29041 203.752 7.92719C203.814 7.56397 203.951 7.21759 204.154 6.91C204.324 6.62 205.284 6.58 205.794 6.73C208.794 7.58 211.724 6.88 214.604 6.24C217.774 5.53 220.864 4.46 224.024 3.7C225.16 3.56961 226.307 3.56961 227.444 3.7C227.475 4.75458 227.378 5.80908 227.154 6.84C226.574 8.54 225.724 10.14 224.984 11.84L224.564 11.69C224.623 11.2398 224.73 10.7973 224.884 10.37C225.304 9.46 225.884 8.6 226.224 7.67C226.331 7.42567 226.386 7.16178 226.386 6.895C226.386 6.62822 226.331 6.36433 226.224 6.12C226.019 5.93535 225.774 5.80047 225.509 5.72589C225.244 5.6513 224.965 5.63902 224.694 5.69C223.444 5.99 222.244 6.51 221.014 6.9C219.144 7.49 217.254 8.02 215.394 8.63C214.784 8.87466 214.195 9.16898 213.634 9.51V9.44Z" fill="#218FA7"/>
<path fill-rule="evenodd" clip-rule="evenodd" d="M78.2136 56.81C77.6536 55.48 78.0836 54.49 79.5936 53.7C84.2236 51.29 88.8136 48.79 93.5336 46.56C99.4636 43.76 105.534 41.19 111.534 38.56C112.365 38.2642 113.213 38.0172 114.074 37.82C113.694 39.34 113.444 40.36 111.884 40.56C110.843 40.7578 109.834 41.0941 108.884 41.56C99.0144 45.6498 89.3826 50.2904 80.0336 55.46C79.3976 55.8664 78.7865 56.3105 78.2036 56.79L78.2136 56.81Z" fill="#218FA7"/>
<path fill-rule="evenodd" clip-rule="evenodd" d="M97.3436 109.24C97.6447 108.811 97.9791 108.407 98.3436 108.03C100.904 105.85 103.474 103.68 106.074 101.55C106.583 101.236 107 100.794 107.283 100.267C107.565 99.7399 107.704 99.1476 107.684 98.55C107.684 98.2 107.804 97.55 108.004 97.55C109.414 97.08 109.334 95.67 109.944 94.71C110.554 93.75 111.374 92.38 112.884 92.49C113.534 92.5709 114.147 92.8402 114.646 93.2649C115.145 93.6895 115.509 94.251 115.694 94.88C116.124 95.88 116.694 96.88 117.014 97.88C117.664 99.65 116.814 100.99 115.014 101C113.533 100.994 112.056 100.846 110.604 100.56C110.114 100.396 109.583 100.406 109.101 100.588C108.618 100.77 108.213 101.114 107.954 101.56C105.584 104.95 102.054 107 98.7136 109.26C98.3584 109.424 97.9811 109.535 97.5936 109.59L97.3436 109.24ZM109.284 97.62C110.914 97.94 112.284 98.24 113.714 98.46C114.074 98.52 114.714 98.4 114.804 98.17C114.857 97.9726 114.871 97.7665 114.843 97.5638C114.816 97.3611 114.748 97.166 114.644 96.99C113.324 94.44 111.234 94.51 109.284 97.62Z" fill="#218FA7"/>
<path fill-rule="evenodd" clip-rule="evenodd" d="M91.7236 95.25C90.8491 94.9286 90.0138 94.5093 89.2336 94C88.9511 93.7769 88.7168 93.4988 88.5449 93.1825C88.3731 92.8663 88.2672 92.5184 88.2336 92.16C88.4003 91.0388 88.8976 89.9928 89.6617 89.1556C90.4259 88.3184 91.4223 87.7281 92.5236 87.46C93.9436 87.2 94.9036 88.03 94.5236 89.2C94.2636 89.98 93.8336 90.46 92.9136 89.98C92.5836 89.81 92.1236 89.59 91.8436 89.69C91.1785 89.9726 90.5365 90.307 89.9236 90.69C90.2764 91.2048 90.7084 91.6604 91.2036 92.04C92.9836 93.04 93.9036 92.8 95.4136 91.36C95.7636 91.03 96.1436 90.73 96.5136 90.42L96.9136 90.76C96.3636 91.54 95.8336 92.35 95.2436 93.1C94.1236 94.54 92.8936 95.89 91.8436 97.38C90.6736 99.04 91.2036 100.24 93.2136 100.54C95.8036 100.92 98.0036 99.91 100.034 98.4C100.304 98.2 100.504 97.87 100.794 97.75C101.236 97.5925 101.691 97.4721 102.154 97.39C102.024 97.81 102.014 98.33 101.754 98.62C99.1536 101.55 96.1036 103.56 91.9436 102.93C90.0736 102.65 89.4336 101.93 89.8836 100.06C90.3902 98.3983 91.0049 96.7715 91.7236 95.19V95.25Z" fill="#218FA7"/>
<path fill-rule="evenodd" clip-rule="evenodd" d="M107.874 9.68C108.97 11.8894 109.321 14.3945 108.874 16.82C108.68 18.0027 108.365 19.1622 107.934 20.28C107.624 21.12 107.744 21.62 108.564 22.02C109.204 22.3534 109.822 22.7275 110.414 23.14C111.339 23.7204 112.021 24.6191 112.33 25.6671C112.64 26.715 112.556 27.8398 112.094 28.83C111.611 29.7976 110.846 30.5958 109.899 31.119C108.953 31.6422 107.87 31.8657 106.794 31.76C106.213 31.6504 105.699 31.3179 105.361 30.8339C105.023 30.3498 104.887 29.7526 104.984 29.17C105.055 27.2646 105.282 25.3682 105.664 23.5C106.08 21.9721 106.584 20.4696 107.174 19C107.887 17.1372 107.84 15.0688 107.044 13.24C106.414 11.89 106.754 10.84 107.924 9.69L107.874 9.68ZM105.744 26.16C105.984 29.05 107.544 30 110.104 28.81C111.314 28.25 111.454 27.72 110.554 26.81C109.93 26.1306 109.233 25.5235 108.474 25C107.934 24.65 107.104 24.22 106.654 24.42C106.204 24.62 106.034 25.56 105.744 26.16Z" fill="#218FA7"/>
<path fill-rule="evenodd" clip-rule="evenodd" d="M35.0336 44.15C34.6536 42.52 34.9436 41.44 36.0336 40.64C43.367 35.24 50.7003 29.85 58.0336 24.47C58.6721 24.083 59.341 23.7486 60.0336 23.47C60.3436 24.91 60.0336 25.78 58.8536 26.26C58.2684 26.4676 57.7109 26.7464 57.1936 27.09C50.947 31.73 44.707 36.3667 38.4736 41C37.3136 41.87 36.3036 42.94 35.0136 44.1L35.0336 44.15Z" fill="#218FA7"/>
<path fill-rule="evenodd" clip-rule="evenodd" d="M185.474 42.68C185.472 41.9696 185.664 41.2722 186.028 40.6626C186.393 40.053 186.917 39.5543 187.544 39.22C194.444 35.6669 201.584 32.6027 208.914 30.05C209.274 29.92 209.914 29.86 210.064 30.05C210.171 30.226 210.233 30.4255 210.246 30.6313C210.258 30.837 210.219 31.0426 210.134 31.23C209.818 31.7902 209.336 32.2378 208.754 32.51C201.456 34.7302 194.416 37.7239 187.754 41.44L185.474 42.67V42.68Z" fill="#218FA7"/>
<path fill-rule="evenodd" clip-rule="evenodd" d="M204.374 52.13C203.574 53.6 202.844 54.99 202.034 56.34C201.954 56.47 201.314 56.42 201.034 56.26C199.504 55.26 197.964 54.26 196.544 53.15C196.338 52.9254 196.189 52.6548 196.108 52.3608C196.028 52.0668 196.02 51.758 196.084 51.46C196.524 50.2504 197.09 49.0907 197.774 48C197.919 47.8363 198.103 47.712 198.31 47.6385C198.516 47.5651 198.737 47.545 198.954 47.58C200.47 48.5047 201.939 49.506 203.354 50.58C203.77 51.0532 204.107 51.59 204.354 52.17L204.374 52.13Z" fill="#218FA7"/>
<path fill-rule="evenodd" clip-rule="evenodd" d="M53.8836 44.44C54.4936 42.92 55.0036 41.54 55.6336 40.21C55.7336 40 56.4136 39.86 56.7036 39.98C58.3308 40.5886 59.9232 41.2863 61.4736 42.07C61.8936 42.29 62.0836 43.07 62.3036 43.55C62.3836 43.74 62.3036 44.02 62.2036 44.25C61.2736 48.15 60.5636 48.5 57.0536 46.77C56.364 46.4848 55.6956 46.1506 55.0536 45.77C54.638 45.3963 54.2778 44.9653 53.9836 44.49L53.8836 44.44Z" fill="#218FA7"/>
<path fill-rule="evenodd" clip-rule="evenodd" d="M137.474 51.4C137.598 52.2925 137.505 53.2018 137.204 54.0511C136.903 54.9004 136.402 55.6648 135.744 56.28C135.524 56.53 134.434 56.38 134.054 56.05C133.355 55.4904 132.79 54.7814 132.4 53.975C132.011 53.1687 131.807 52.2854 131.804 51.39C131.889 49.1015 132.2 46.8271 132.734 44.6C133.304 42.18 133.914 39.82 132.954 37.41C132.554 36.41 131.884 35.5 131.394 34.52C131.071 34.0146 130.879 33.4376 130.834 32.84C130.834 32.37 131.344 31.92 131.624 31.46C132.054 31.77 132.624 31.99 132.894 32.4C135.544 36.57 134.894 40.93 133.474 45.29C132.644 47.83 132.474 50.29 134.084 52.57C134.618 53.1357 135.223 53.6298 135.884 54.04C136.294 53.45 136.724 52.87 137.124 52.27C137.262 51.9857 137.379 51.6916 137.474 51.39V51.4Z" fill="#218FA7"/>
<path fill-rule="evenodd" clip-rule="evenodd" d="M33.8737 105.19L35.8737 104.94C35.6637 105.59 35.5236 106.05 35.2936 106.76L39.2137 105.09C38.2837 103.66 38.4836 102.48 39.8136 101.6C40.1648 101.355 40.5854 101.228 41.0136 101.24C41.2736 101.24 41.5036 101.68 41.7436 101.92C41.5098 102.109 41.2506 102.263 40.9736 102.38C40.4736 102.52 39.9736 102.57 39.4436 102.66C39.5336 102.96 39.5436 103.43 39.7336 103.52C40.2935 103.803 40.8999 103.983 41.5236 104.05C41.8836 104.05 42.2836 103.78 42.8436 103.92C42.5063 104.244 42.134 104.529 41.7336 104.77C39.563 105.902 37.3178 106.884 35.0136 107.71C33.0165 108.163 30.9806 108.424 28.9336 108.49C28.7699 108.494 28.6077 108.458 28.4613 108.385C28.3148 108.312 28.1886 108.203 28.0936 108.07C27.6536 106.69 26.7036 107.25 25.7836 107.27C25.0136 107.27 23.8836 107.15 23.5536 106.65C23.2236 106.15 23.5536 105.08 23.7236 104.29C23.8312 103.916 24.0782 103.597 24.4136 103.4C24.8336 103.15 25.4636 102.81 25.8136 102.96C26.6236 103.3 26.6936 103.96 26.0836 104.79C25.8736 104.65 25.6936 104.42 25.5036 104.41C25.0617 104.417 24.6207 104.454 24.1836 104.52C24.2936 105.01 24.1836 105.71 24.5336 105.96C25.5936 106.83 29.1736 105.68 29.6036 104.36C29.7136 104.03 29.4136 103.58 29.3236 103.18C29.2336 102.78 29.1836 102.32 29.0636 101.56C30.8036 102.94 30.8036 104.05 29.5236 105.42C29.2017 105.873 28.9364 106.363 28.7336 106.88C29.3387 107.081 29.9673 107.202 30.6036 107.24C31.2944 107.246 31.9668 107.018 32.5115 106.593C33.0562 106.168 33.4411 105.571 33.6037 104.9C33.981 103.967 34.5344 103.114 35.2336 102.39C35.5758 102.073 36.0179 101.886 36.4836 101.86C36.6836 101.86 36.9437 102.2 37.1736 102.39C36.9536 102.59 36.7036 103 36.5236 102.97C34.8536 102.68 34.5836 103.97 33.8636 105.18L33.8737 105.19Z" fill="#218FA7"/>
<path fill-rule="evenodd" clip-rule="evenodd" d="M11.8036 22.42C11.8696 23.4455 11.7033 24.4726 11.3172 25.4249C10.9311 26.3772 10.3351 27.23 9.57362 27.92C9.42439 28.0986 9.23779 28.2422 9.02699 28.3407C8.81618 28.4393 8.58632 28.4903 8.35362 28.4903C8.12092 28.4903 7.89106 28.4393 7.68025 28.3407C7.46945 28.2422 7.28285 28.0986 7.13362 27.92C6.34377 27.072 5.77681 26.0412 5.48362 24.92C5.00514 22.2571 5.28228 19.5134 6.28362 17C6.78362 15.65 7.19362 14.27 7.72362 12.94C7.88362 12.54 8.34362 12.25 8.66362 11.94C8.76362 12.45 9.05362 13.01 8.92362 13.45C8.47362 15 7.63362 16.56 7.27362 18.18C7.00771 19.8097 6.87726 21.4587 6.88362 23.11C6.8662 23.451 6.97675 23.7863 7.19362 24.05C7.82362 24.7 8.53362 25.28 9.19362 25.89C9.71362 25.22 10.2836 24.59 10.7336 23.89C10.9972 23.3769 11.2147 22.8415 11.3836 22.29L11.7736 22.44L11.8036 22.42Z" fill="#218FA7"/>
<path fill-rule="evenodd" clip-rule="evenodd" d="M73.4736 21C73.5432 22.0475 73.3701 23.0969 72.9677 24.0665C72.5653 25.036 71.9445 25.8996 71.1536 26.59C71.0082 26.7558 70.829 26.8886 70.6281 26.9796C70.4272 27.0705 70.2092 27.1176 69.9886 27.1176C69.7681 27.1176 69.5501 27.0705 69.3492 26.9796C69.1483 26.8886 68.9691 26.7558 68.8236 26.59C68.0341 25.7386 67.4613 24.7096 67.1536 23.59C66.676 20.932 66.9461 18.1935 67.9336 15.68C68.4636 14.24 68.9336 12.77 69.4536 11.35C69.5736 11.03 70.0036 10.83 70.2936 10.57C70.4336 10.98 70.7836 11.45 70.6836 11.78C70.1736 13.42 69.3636 14.99 68.9936 16.66C68.7077 18.3318 68.5572 20.024 68.5436 21.72C68.5242 22.1591 68.6746 22.5888 68.9636 22.92C69.5994 23.4908 70.2672 24.025 70.9636 24.52C71.4576 23.9353 71.9151 23.3208 72.3336 22.68C72.615 22.1148 72.8459 21.5258 73.0236 20.92L73.4736 21Z" fill="#218FA7"/>
<path fill-rule="evenodd" clip-rule="evenodd" d="M194.324 11.26C194.174 12.26 194.004 13.26 193.894 14.26C193.644 16.48 193.324 18.7 193.224 20.93C193.226 21.6801 193.416 22.4178 193.776 23.076C194.136 23.7343 194.654 24.2925 195.284 24.7C195.974 25.24 196.534 25.2 196.934 24.47C197.524 23.39 198.034 22.27 198.814 21.11C198.887 21.8244 198.829 22.5463 198.644 23.24C197.879 24.6742 197.038 26.0662 196.124 27.41C195.614 28.2 195.004 27.92 194.424 27.41C193.628 26.7848 192.98 25.9921 192.526 25.0882C192.071 24.1843 191.821 23.1914 191.794 22.18C191.681 18.769 192.165 15.3646 193.224 12.12C193.376 11.7665 193.567 11.4311 193.794 11.12L194.324 11.27V11.26Z" fill="#218FA7"/>
<path fill-rule="evenodd" clip-rule="evenodd" d="M191.994 64.52C191.874 62.99 191.744 61.76 191.684 60.52C191.51 57.4709 190.259 54.5827 188.154 52.37C186.944 51.03 186.994 50.45 188.264 49.08C192.444 51.57 195.044 61.4 192.004 64.52H191.994Z" fill="#218FA7"/>
<path fill-rule="evenodd" clip-rule="evenodd" d="M209.414 43.26C209.064 44.67 208.764 46.09 208.344 47.47C207.924 48.85 207.544 50.47 208.444 51.9C208.927 52.4621 209.489 52.9506 210.114 53.35L211.284 51.86C211.41 51.6496 211.609 51.493 211.844 51.42C211.744 52.97 211.684 54.57 210.284 55.55C209.993 55.7058 209.668 55.7873 209.339 55.7873C209.009 55.7873 208.684 55.7058 208.394 55.55C207.609 54.9458 207.018 54.1255 206.694 53.19C205.784 49.86 206.694 46.76 208.294 43.82C208.516 43.5333 208.778 43.2807 209.074 43.07L209.424 43.22L209.414 43.26Z" fill="#218FA7"/>
<path fill-rule="evenodd" clip-rule="evenodd" d="M86.1536 98.21C85.7598 98.8473 85.2708 99.4206 84.7036 99.91C80.3236 102.58 75.9036 105.16 71.3536 107.91C71.2295 107.446 71.2715 106.953 71.4724 106.517C71.6733 106.08 72.0204 105.728 72.4536 105.52C74.4536 104.27 76.4536 103 78.4536 101.79C80.3036 100.68 82.1836 99.62 84.0636 98.56C84.5936 98.26 85.1636 98.04 85.7136 97.79L86.1636 98.27L86.1536 98.21Z" fill="#218FA7"/>
<path fill-rule="evenodd" clip-rule="evenodd" d="M156.574 82.06C156.434 83.35 156.344 84.65 156.144 85.93C156.04 86.595 156.076 87.2742 156.248 87.9248C156.42 88.5754 156.725 89.1832 157.144 89.71C158.054 90.95 159.084 90.85 159.744 89.45C160.094 88.72 160.394 87.97 160.834 86.94C161.484 89.09 159.714 92.65 157.994 93.07C157.724 93.1191 157.447 93.1039 157.185 93.0257C156.922 92.9475 156.682 92.8085 156.484 92.62C155.814 91.62 154.934 90.62 154.904 89.53C154.923 87.3418 155.114 85.1585 155.474 83C155.606 82.5962 155.805 82.2175 156.064 81.88L156.554 82.02L156.574 82.06Z" fill="#218FA7"/>
<path fill-rule="evenodd" clip-rule="evenodd" d="M67.7536 39.46C67.6536 40.03 67.5936 40.61 67.4536 41.17C66.7045 43.7849 66.9873 46.5875 68.2436 49C68.4281 49.4428 68.7041 49.8415 69.0536 50.17C69.5936 50.58 70.3236 51.17 70.8536 51.05C71.3836 50.93 71.6436 50.05 71.9836 49.45C72.104 49.1442 72.2512 48.8498 72.4236 48.57C72.6364 49.1817 72.7038 49.8345 72.6205 50.4767C72.5372 51.1189 72.3054 51.7329 71.9436 52.27C70.8336 53.89 69.2736 53.92 68.0336 52.27C66.4132 50.0258 65.7283 47.2397 66.1236 44.5C66.3636 42.75 66.6974 41.0142 67.1236 39.3L67.7136 39.42L67.7536 39.46Z" fill="#218FA7"/>
<path fill-rule="evenodd" clip-rule="evenodd" d="M180.104 91.82C179.694 92.6 179.294 93.39 178.864 94.16C178.394 94.9489 178.136 95.8453 178.113 96.763C178.09 97.6807 178.304 98.5888 178.734 99.4C179.584 101.11 180.484 101.24 181.734 99.78C182.151 99.2282 182.539 98.654 182.894 98.06C182.954 99.78 181.104 102.74 179.604 103.14C179.298 103.177 178.989 103.135 178.704 103.02C178.419 102.905 178.167 102.719 177.974 102.48C177.428 101.325 177.09 100.082 176.974 98.81C176.824 96.03 178.024 93.68 179.574 91.51L180.094 91.83L180.104 91.82Z" fill="#218FA7"/>
<path fill-rule="evenodd" clip-rule="evenodd" d="M164.404 31.66C164.244 32.34 164.134 32.91 163.974 33.47C163.645 34.4237 163.534 35.4391 163.65 36.4412C163.766 37.4433 164.106 38.4066 164.644 39.26C165.099 39.8472 165.747 40.2545 166.474 40.41C166.714 40.46 167.204 39.46 167.524 38.91C167.79 38.3678 168.024 37.8102 168.224 37.24C168.303 39.1828 167.609 41.0778 166.294 42.51C166.106 42.6583 165.883 42.7555 165.646 42.7923C165.41 42.8291 165.168 42.8042 164.944 42.72C164.267 42.3748 163.71 41.8349 163.344 41.17C162.749 39.7266 162.467 38.1731 162.519 36.6127C162.571 35.0523 162.954 33.5208 163.644 32.12C163.709 31.9919 163.801 31.8793 163.914 31.79C164.071 31.7249 164.236 31.678 164.404 31.65V31.66Z" fill="#218FA7"/>
<path fill-rule="evenodd" clip-rule="evenodd" d="M49.8336 12.43C49.6936 13.43 49.5436 14.43 49.4036 15.43C49.201 16.2252 49.1971 17.058 49.3925 17.855C49.5878 18.652 49.9763 19.3886 50.5236 20C51.5236 21.05 52.1536 20.94 52.7036 19.55C52.8539 19.0776 53.0657 18.6271 53.3336 18.21C53.5285 18.9952 53.4935 19.8199 53.2329 20.5858C52.9723 21.3517 52.497 22.0266 51.8636 22.53C51.5448 22.6804 51.192 22.7439 50.8407 22.7141C50.4895 22.6842 50.1524 22.5621 49.8636 22.36C49.0355 21.461 48.5017 20.3306 48.3336 19.12C48.4684 16.8472 48.7524 14.5856 49.1836 12.35L49.8336 12.43Z" fill="#218FA7"/>
<path fill-rule="evenodd" clip-rule="evenodd" d="M111.384 46.42C111.124 47 110.864 47.59 110.594 48.17C110.216 48.8201 110.069 49.5785 110.176 50.3225C110.283 51.0665 110.638 51.7527 111.184 52.27C112.374 53.5 113.284 53.36 114.014 51.83C114.073 51.6823 114.166 51.5509 114.286 51.4465C114.406 51.3422 114.549 51.2679 114.704 51.23C114.538 52.0794 114.245 52.8987 113.834 53.66C113.314 54.37 112.324 55.34 111.724 55.22C111.233 55.0788 110.779 54.8344 110.391 54.5032C110.003 54.1721 109.69 53.7619 109.474 53.3C108.374 50.69 109.354 48.39 110.924 46.3L111.384 46.42Z" fill="#218FA7"/>
<path fill-rule="evenodd" clip-rule="evenodd" d="M32.9936 100.63C33.1136 98.92 33.9136 97.83 34.8236 98.05C35.7336 98.27 35.9136 98.87 35.5336 99.82C34.3836 99.02 33.4336 99 33.0036 100.63H32.9936Z" fill="#218FA7"/>
</g>
<defs>
<clipPath id="clip0_3_2">
<rect width="393.73" height="149.63" fill="white" transform="translate(0.473633)"/>
</clipPath>
</defs>
</svg>
